<svg width="160" height="43" viewBox="0 0 160 43" fill="none" xmlns="http://www.w3.org/2000/svg">
<path d="M103.416 30.192C102.136 30.192 100.912 30 99.744 29.616C98.576 29.216 97.656 28.704 96.984 28.08L97.872 26.208C98.512 26.768 99.328 27.232 100.32 27.6C101.312 27.968 102.344 28.152 103.416 28.152C104.392 28.152 105.184 28.04 105.792 27.816C106.4 27.592 106.848 27.288 107.136 26.904C107.424 26.504 107.568 26.056 107.568 25.56C107.568 24.984 107.376 24.52 106.992 24.168C106.624 23.816 106.136 23.536 105.528 23.328C104.936 23.104 104.28 22.912 103.56 22.752C102.84 22.592 102.112 22.408 101.376 22.2C100.656 21.976 99.992 21.696 99.384 21.36C98.792 21.024 98.312 20.576 97.944 20.016C97.576 19.44 97.392 18.704 97.392 17.808C97.392 16.944 97.616 16.152 98.064 15.432C98.528 14.696 99.232 14.112 100.176 13.68C101.136 13.232 102.352 13.008 103.824 13.008C104.8 13.008 105.768 13.136 106.728 13.392C107.688 13.648 108.52 14.016 109.224 14.496L108.432 16.416C107.712 15.936 106.952 15.592 106.152 15.384C105.352 15.16 104.576 15.048 103.824 15.048C102.88 15.048 102.104 15.168 101.496 15.408C100.888 15.648 100.44 15.968 100.152 16.368C99.88 16.768 99.744 17.216 99.744 17.712C99.744 18.304 99.928 18.776 100.296 19.128C100.68 19.48 101.168 19.76 101.76 19.968C102.368 20.176 103.032 20.368 103.752 20.544C104.472 20.704 105.192 20.888 105.912 21.096C106.648 21.304 107.312 21.576 107.904 21.912C108.512 22.248 109 22.696 109.368 23.256C109.736 23.816 109.92 24.536 109.92 25.416C109.92 26.264 109.688 27.056 109.224 27.792C108.76 28.512 108.04 29.096 107.064 29.544C106.104 29.976 104.888 30.192 103.416 30.192ZM114.962 26.928L115.01 23.976L122.33 17.28H125.114L119.498 22.8L118.25 23.856L114.962 26.928ZM113.09 30V12.192H115.394V30H113.09ZM122.81 30L117.818 23.808L119.306 21.96L125.642 30H122.81ZM127.856 30V17.28H130.16V30H127.856ZM129.008 14.832C128.56 14.832 128.184 14.688 127.88 14.4C127.592 14.112 127.448 13.76 127.448 13.344C127.448 12.912 127.592 12.552 127.88 12.264C128.184 11.976 128.56 11.832 129.008 11.832C129.456 11.832 129.824 11.976 130.112 12.264C130.416 12.536 130.568 12.88 130.568 13.296C130.568 13.728 130.424 14.096 130.136 14.4C129.848 14.688 129.472 14.832 129.008 14.832ZM134.559 30V12.192H136.863V30H134.559ZM141.262 30V12.192H143.566V30H141.262ZM151.613 30.144C150.557 30.144 149.549 30 148.589 29.712C147.645 29.424 146.901 29.072 146.357 28.656L147.317 26.832C147.861 27.2 148.533 27.512 149.333 27.768C150.133 28.024 150.949 28.152 151.781 28.152C152.853 28.152 153.621 28 154.085 27.696C154.565 27.392 154.805 26.968 154.805 26.424C154.805 26.024 154.661 25.712 154.373 25.488C154.085 25.264 153.701 25.096 153.221 24.984C152.757 24.872 152.237 24.776 151.661 24.696C151.085 24.6 150.509 24.488 149.933 24.36C149.357 24.216 148.829 24.024 148.349 23.784C147.869 23.528 147.485 23.184 147.197 22.752C146.909 22.304 146.765 21.712 146.765 20.976C146.765 20.208 146.981 19.536 147.413 18.96C147.845 18.384 148.453 17.944 149.237 17.64C150.037 17.32 150.981 17.16 152.069 17.16C152.901 17.16 153.741 17.264 154.589 17.472C155.453 17.664 156.157 17.944 156.701 18.312L155.717 20.136C155.141 19.752 154.541 19.488 153.917 19.344C153.293 19.2 152.669 19.128 152.045 19.128C151.037 19.128 150.285 19.296 149.789 19.632C149.293 19.952 149.045 20.368 149.045 20.88C149.045 21.312 149.189 21.648 149.477 21.888C149.781 22.112 150.165 22.288 150.629 22.416C151.109 22.544 151.637 22.656 152.213 22.752C152.789 22.832 153.365 22.944 153.941 23.088C154.517 23.216 155.037 23.4 155.501 23.64C155.981 23.88 156.365 24.216 156.653 24.648C156.957 25.08 157.109 25.656 157.109 26.376C157.109 27.144 156.885 27.808 156.437 28.368C155.989 28.928 155.357 29.368 154.541 29.688C153.725 29.992 152.749 30.144 151.613 30.144Z" fill="white"/>
<g clip-path="url(#clip0_408_1486)">
<mask id="mask0_408_1486" style="mask-type:luminance" maskUnits="userSpaceOnUse" x="0" y="0" width="62" height="43">
<path d="M0 0H61.6666V43H0" fill="white"/>
</mask>
<g mask="url(#mask0_408_1486)">
<path fill-rule="evenodd" clip-rule="evenodd" d="M4.73186 4.77877V28.6766H9.47601V9.55822H14.2204V28.6766H18.9658V9.55822H23.7107V33.4558H-0.0131836V0H61.6665V4.77877H4.73186Z" fill="white"/>
</g>
<mask id="mask1_408_1486" style="mask-type:luminance" maskUnits="userSpaceOnUse" x="0" y="0" width="62" height="43">
<path d="M0 0H61.6666V43H0" fill="white"/>
</mask>
<g mask="url(#mask1_408_1486)">
<path fill-rule="evenodd" clip-rule="evenodd" d="M42.6903 23.8955V9.55811H28.4551V33.4557H42.6897V28.6765H33.2001V23.8955H42.6903ZM33.2001 14.3362H37.9455V19.1165H33.2001V14.3362Z" fill="white"/>
</g>
</g>
<path d="M82 4V39" stroke="white" stroke-width="2"/>
<mask id="mask2_408_1486" style="mask-type:luminance" maskUnits="userSpaceOnUse" x="0" y="0" width="62" height="43">
<path d="M0 0H61.6666V43H0" fill="white"/>
</mask>
<g mask="url(#mask2_408_1486)">
<path fill-rule="evenodd" clip-rule="evenodd" d="M61.6665 43.0132V9.55811H47.4333V33.4557H56.923V38.2344H-0.0131836V43.0132H61.6665ZM52.1785 14.3384H56.923V28.6765H52.1785V14.3384Z" fill="white"/>
</g>
<defs>
<clipPath id="clip0_408_1486">
<rect width="62" height="43" fill="white"/>
</clipPath>
</defs>
</svg>
